<?xml version="1.0" encoding="utf-8"?>
<!-- Generator: Adobe Illustrator 22.1.0, SVG Export Plug-In . SVG Version: 6.00 Build 0)  -->
<svg version="1.1" id="Layer_1" xmlns="http://www.w3.org/2000/svg" xmlns:xlink="http://www.w3.org/1999/xlink" x="0px" y="0px"
	 viewBox="0 0 310.6 56.6" style="enable-background:new 0 0 310.6 56.6;" xml:space="preserve">
<style type="text/css">
	.st0{fill:#007CBA;}
</style>
<title>Asset 1</title>
<g id="d418b342-f535-492c-9cb9-f8b87ab7570f">
	<g id="ca8720c3-24f6-4cb3-99c6-c4d4ec0cb926">
		<path class="st0" d="M53.3,38.5c-1.2,0-2.1-1-2.1-2.2c0,0,0,0,0,0l0,0c0-1.2,1-2.1,2.2-2.1c0,0,0,0,0,0l0,0c1.2,0,2.1,1,2.1,2.2
			c0,0,0,0,0,0l0,0C55.5,37.6,54.5,38.5,53.3,38.5C53.3,38.5,53.3,38.5,53.3,38.5z"/>
		<path class="st0" d="M53.5,29.2c-1.2,0-2.2-1.1-2.2-2.3l0,0c0-1.2,1.1-2.2,2.3-2.2l0,0c1.2,0,2.2,1.1,2.2,2.3l0,0
			C55.8,28.2,54.8,29.2,53.5,29.2L53.5,29.2z"/>
		<path class="st0" d="M53.8,19.9c-1.3,0-2.3-1.1-2.3-2.4c0,0,0,0,0,0l0,0c0-1.3,1.1-2.3,2.4-2.3c0,0,0,0,0,0l0,0
			c1.3,0,2.3,1.1,2.3,2.4c0,0,0,0,0,0l0,0C56.2,18.9,55.2,19.9,53.8,19.9C53.9,19.9,53.8,19.9,53.8,19.9z"/>
		<path class="st0" d="M38.9,52.1c-1.1,0-2-1-1.9-2.1c0,0,0,0,0,0l0,0c0-1.1,0.9-2,2-2l0,0c1.1,0,2,0.9,2,2c0,0,0,0.1,0,0.1l0,0
			C41,51.2,40.1,52.1,38.9,52.1L38.9,52.1L38.9,52.1z"/>
		<path class="st0" d="M48.6,43c-1.2,0-2.1-1-2.1-2.2l0,0c0.1-1.2,1-2.1,2.2-2l0,0c1.2,0,2.1,1,2.1,2.2c0,0,0,0,0,0l0,0
			C50.7,42.1,49.8,43.1,48.6,43L48.6,43L48.6,43z M39.2,42.7c-1.2,0-2.1-1-2.1-2.2c0,0,0,0,0,0l0,0c0-1.2,1-2.1,2.2-2.1c0,0,0,0,0,0
			l0,0c1.2,0,2.1,1,2.1,2.2c0,0,0,0,0,0l0,0C41.3,41.8,40.4,42.7,39.2,42.7L39.2,42.7z"/>
		<path class="st0" d="M48.8,33.7c-1.2,0-2.2-1-2.1-2.3c0,0,0,0,0,0l0,0c0-1.2,1-2.2,2.3-2.1c0,0,0,0,0,0l0,0c1.2,0,2.2,1,2.2,2.3
			c0,0,0,0,0,0l0,0c0,1.2-1,2.1-2.2,2.1H48.8L48.8,33.7z M39.5,33.5c-1.2,0-2.2-1.1-2.2-2.3l0,0c0-1.2,1-2.2,2.2-2.2c0,0,0,0,0,0
			l0,0c1.2,0,2.2,1,2.2,2.3c0,0,0,0,0,0l0,0C41.7,32.5,40.7,33.4,39.5,33.5L39.5,33.5L39.5,33.5z"/>
		<path class="st0" d="M49.1,24.4c-1.3,0-2.3-1.1-2.2-2.4c0,0,0,0,0,0l0,0c0-1.3,1.1-2.3,2.4-2.2c0,0,0,0,0,0l0,0
			c1.3,0,2.3,1.1,2.2,2.4c0,0,0,0,0,0l0,0C51.4,23.4,50.4,24.4,49.1,24.4L49.1,24.4L49.1,24.4z M39.7,24.1c-1.3,0-2.3-1.1-2.2-2.4
			l0,0c0-1.3,1.1-2.3,2.4-2.2c0,0,0,0,0,0l0,0c1.3,0,2.3,1.1,2.2,2.4c0,0,0,0,0,0l0,0C42.1,23.1,41,24.1,39.7,24.1
			C39.8,24.1,39.7,24.1,39.7,24.1z"/>
		<path class="st0" d="M49.4,15.1C48,15,47,13.9,47,12.6l0,0c0-1.3,1.1-2.4,2.5-2.3c0,0,0,0,0,0l0,0c1.3,0,2.4,1.1,2.3,2.5l0,0
			C51.8,14.1,50.7,15.1,49.4,15.1C49.4,15.1,49.4,15.1,49.4,15.1z M40,14.8c-1.3,0-2.4-1.1-2.3-2.5c0,0,0,0,0,0l0,0
			c0-1.3,1.1-2.4,2.4-2.4c0,0,0,0,0,0l0,0c1.3,0,2.4,1.1,2.3,2.5l0,0C42.4,13.8,41.3,14.8,40,14.8L40,14.8L40,14.8z"/>
		<path class="st0" d="M40.2,5.5c-1.4,0-2.5-1.2-2.4-2.6c0,0,0,0,0,0l0,0c0-1.4,1.2-2.5,2.6-2.4l0,0c1.4,0,2.5,1.2,2.4,2.6
			c0,0,0,0,0,0l0,0C42.8,4.4,41.7,5.5,40.2,5.5L40.2,5.5z"/>
		<path class="st0" d="M34.1,56.6c-1.1,0-1.9-0.9-1.9-2l0,0c0-1.1,0.9-1.9,2-1.9l0,0c1.1,0,1.9,0.9,1.9,2l0,0
			C36.1,55.8,35.2,56.6,34.1,56.6L34.1,56.6L34.1,56.6z"/>
		<path class="st0" d="M43.8,47.6c-1.1,0-2-1-2-2.1l0,0c0-1.1,1-2,2.1-2c0,0,0,0,0,0l0,0c1.1,0,2,1,2,2.1l0,0
			C45.8,46.7,44.9,47.6,43.8,47.6L43.8,47.6L43.8,47.6z M48.5,51.9c-1,0-1.7-0.8-1.7-1.8l0,0c0-1,0.8-1.7,1.8-1.7c0,0,0,0,0,0l0,0
			c1,0,1.7,0.8,1.7,1.8c0,0,0,0,0,0l0,0C50.3,51.2,49.5,51.9,48.5,51.9C48.6,51.9,48.5,51.9,48.5,51.9z M34.4,47.3c-1.1,0-2-1-2-2.1
			l0,0c0-1.1,1-2,2.1-2l0,0c1.1,0,2,1,2,2.1l0,0C36.4,46.4,35.5,47.3,34.4,47.3L34.4,47.3L34.4,47.3z"/>
		<path class="st0" d="M53.4,38.5c-1.2,0-2.1-1-2.1-2.2c0,0,0,0,0,0l0,0c0-1.2,1-2.1,2.2-2.1l0,0c1.2,0,2.1,1,2.1,2.2c0,0,0,0,0,0
			l0,0C55.6,37.6,54.6,38.5,53.4,38.5C53.5,38.5,53.4,38.5,53.4,38.5z M44,38.2c-1.2,0-2.1-1-2.1-2.2c0,0,0,0,0,0l0,0
			c0-1.2,1-2.1,2.2-2.1c0,0,0,0,0,0l0,0c1.2,0,2.1,1,2.1,2.2c0,0,0,0,0,0l0,0C46.2,37.3,45.2,38.2,44,38.2L44,38.2L44,38.2z
			 M34.6,38c-1.2,0-2.1-1-2.1-2.2c0,0,0,0,0,0l0,0c0-1.2,1-2.1,2.2-2.1l0,0c1.2,0,2.1,1,2.1,2.2l0,0C36.8,37.1,35.9,38,34.6,38
			L34.6,38z"/>
		<path class="st0" d="M53.7,29.2c-1.2,0-2.2-1.1-2.2-2.3l0,0c0-1.2,1.1-2.2,2.3-2.2c0,0,0,0,0,0l0,0c1.2,0,2.2,1.1,2.2,2.3l0,0
			C56,28.2,55,29.2,53.7,29.2C53.7,29.2,53.7,29.2,53.7,29.2z M44.3,28.9c-1.2,0-2.2-1.1-2.2-2.3l0,0c0-1.2,1.1-2.2,2.3-2.2
			c0,0,0,0,0,0l0,0c1.2,0,2.2,1.1,2.2,2.3l0,0C46.6,28,45.6,28.9,44.3,28.9C44.3,28.9,44.3,28.9,44.3,28.9z M34.9,28.7
			c-1.2,0-2.2-1.1-2.2-2.3l0,0c0-1.2,1.1-2.2,2.3-2.2l0,0c1.2,0,2.2,1.1,2.2,2.3l0,0c0,1.2-1,2.2-2.2,2.2H34.9L34.9,28.7z"/>
		<path class="st0" d="M53.9,19.9c-1.3,0-2.3-1.1-2.3-2.4c0,0,0,0,0,0l0,0c0-1.3,1.1-2.3,2.4-2.3l0,0c1.3,0,2.3,1.1,2.3,2.4
			c0,0,0,0,0,0l0,0C56.3,18.9,55.3,19.9,53.9,19.9L53.9,19.9L53.9,19.9z M44.5,19.6c-1.3,0-2.3-1.1-2.3-2.4c0,0,0,0,0,0l0,0
			c0-1.3,1.1-2.3,2.4-2.3c0,0,0,0,0,0l0,0c1.3,0,2.3,1.1,2.3,2.4c0,0,0,0,0,0l0,0c0,1.3-1.1,2.3-2.3,2.3L44.5,19.6L44.5,19.6z
			 M35.2,19.3c-1.3,0-2.3-1.1-2.3-2.4c0,0,0,0,0,0l0,0c0-1.3,1.1-2.3,2.4-2.3c0,0,0,0,0,0l0,0c1.3,0,2.3,1.1,2.3,2.4c0,0,0,0,0,0
			l0,0C37.5,18.3,36.5,19.4,35.2,19.3L35.2,19.3z"/>
		<path class="st0" d="M44.8,10.3c-1.3,0-2.4-1.1-2.4-2.5c0,0,0,0,0,0l0,0c0-1.3,1.2-2.4,2.5-2.4c0,0,0,0,0.1,0l0,0
			c1.3,0,2.4,1.2,2.4,2.5l0,0c0,1.3-1.1,2.4-2.4,2.4H44.8L44.8,10.3z M35.4,10C34.1,10,33,8.8,33,7.5c0,0,0,0,0,0l0,0
			c0-1.3,1.2-2.4,2.5-2.4c0,0,0,0,0,0l0,0c1.3,0,2.4,1.2,2.4,2.5c0,0,0,0,0,0l0,0C37.9,9,36.8,10,35.4,10C35.5,10,35.4,10,35.4,10z"
			/>
		<path class="st0" d="M29.8,51.8c-1.1,0-2-0.9-2-2c0,0,0-0.1,0-0.1l0,0c0-1.1,0.9-2,2-2c0,0,0.1,0,0.1,0l0,0c1.1,0,2,0.9,2,2
			c0,0,0,0.1,0,0.1l0,0C31.9,51,31,51.9,29.8,51.8L29.8,51.8L29.8,51.8z M20.4,51.6c-1.1,0-2-0.9-2-2c0,0,0-0.1,0-0.1l0,0
			c0-1.1,0.9-2,2-2c0,0,0.1,0,0.1,0l0,0c1.1,0,2,0.9,2,2c0,0,0,0.1,0,0.1l0,0C22.5,50.7,21.6,51.6,20.4,51.6L20.4,51.6L20.4,51.6z
			 M11,51.3c-1.1,0-2-0.9-2-2c0,0,0-0.1,0-0.1l0,0c0-1.1,0.9-2,2-2c0,0,0.1,0,0.1,0l0,0c1.1,0,2,0.9,2,2c0,0,0,0.1,0,0.1l0,0
			C13.1,50.4,12.2,51.3,11,51.3C11.1,51.3,11,51.3,11,51.3z"/>
		<path class="st0" d="M30,42.5c-1.2,0-2.1-1-2.1-2.2c0,0,0,0,0,0l0,0c0-1.2,1-2.1,2.2-2.1c0,0,0,0,0,0l0,0c1.2,0,2.1,1,2.1,2.2l0,0
			C32.2,41.6,31.3,42.5,30,42.5C30.1,42.5,30.1,42.5,30,42.5z M20.7,42.2c-1.2,0-2.1-1-2.1-2.2c0,0,0,0,0,0l0,0c0-1.2,1-2.1,2.2-2.1
			l0,0c1.2,0,2.1,1,2.1,2.2l0,0C22.8,41.3,21.9,42.2,20.7,42.2L20.7,42.2L20.7,42.2z M11.3,42c-1.2,0-2.1-1-2.1-2.2l0,0
			c0-1.2,1-2.1,2.2-2.1l0,0c1.2,0,2.1,1,2.1,2.2l0,0C13.4,41.1,12.5,42,11.3,42L11.3,42L11.3,42z"/>
		<path class="st0" d="M30.3,33.2c-1.2,0-2.2-1-2.2-2.3c0,0,0,0,0,0l0,0c0-1.2,1.1-2.2,2.3-2.1l0,0c1.2,0,2.2,1,2.2,2.3c0,0,0,0,0,0
			l0,0C32.6,32.2,31.6,33.2,30.3,33.2L30.3,33.2z M20.9,32.9c-1.2,0-2.2-1-2.2-2.3c0,0,0,0,0,0l0,0c0-1.2,1.1-2.2,2.3-2.1l0,0
			c1.2,0,2.2,1,2.2,2.3c0,0,0,0,0,0l0,0C23.2,32,22.2,32.9,20.9,32.9L20.9,32.9z M11.5,32.7c-1.2,0-2.2-1.1-2.2-2.3l0,0
			c0-1.2,1-2.2,2.3-2.1c0,0,0,0,0,0l0,0c1.2,0,2.2,1,2.2,2.2c0,0,0,0,0,0l0,0C13.8,31.7,12.8,32.7,11.5,32.7
			C11.6,32.7,11.5,32.7,11.5,32.7z M2.2,32.4c-1.2,0-2.2-1-2.2-2.2c0,0,0,0,0,0l0,0C0,28.9,1.1,28,2.3,28l0,0c1.2,0,2.2,1,2.2,2.3
			c0,0,0,0,0,0l0,0C4.4,31.5,3.4,32.4,2.2,32.4L2.2,32.4z"/>
		<path class="st0" d="M30.6,23.9c-1.3,0-2.3-1.1-2.2-2.4c0,0,0,0,0,0l0,0c0-1.3,1.1-2.3,2.3-2.2c0,0,0,0,0,0l0,0
			c1.3,0,2.3,1,2.3,2.3c0,0,0,0,0,0.1l0,0c0,1.2-1.1,2.2-2.3,2.2H30.6L30.6,23.9z M21.2,23.6c-1.3-0.1-2.2-1.1-2.2-2.4l0,0
			c0-1.3,1.1-2.3,2.3-2.2l0,0c1.3,0,2.3,1.1,2.2,2.3c0,0,0,0,0,0l0,0C23.5,22.6,22.5,23.6,21.2,23.6L21.2,23.6L21.2,23.6z
			 M11.8,23.3c-1.3,0-2.3-1.1-2.2-2.3l0,0c0-1.3,1.1-2.3,2.3-2.2c0,0,0,0,0,0l0,0c1.3,0,2.3,1.1,2.2,2.3c0,0,0,0,0,0l0,0
			C14.1,22.4,13.1,23.4,11.8,23.3L11.8,23.3L11.8,23.3z M2.4,23.1c-1.3,0-2.3-1.1-2.2-2.4l0,0c0-1.3,1.1-2.3,2.4-2.2l0,0
			c1.3,0,2.3,1.1,2.2,2.4l0,0C4.7,22.1,3.7,23.1,2.4,23.1C2.5,23.1,2.4,23.1,2.4,23.1z"/>
		<path class="st0" d="M30.9,14.6c-1.3,0-2.4-1.1-2.3-2.5l0,0c0-1.3,1.1-2.4,2.5-2.3c0,0,0,0,0,0l0,0c1.3,0,2.4,1.1,2.3,2.5
			c0,0,0,0,0,0l0,0C33.3,13.5,32.2,14.6,30.9,14.6L30.9,14.6L30.9,14.6z M21.5,14.3c-1.3,0-2.4-1.1-2.3-2.4c0,0,0,0,0,0l0,0
			c0-1.3,1.1-2.4,2.5-2.3l0,0c1.3,0,2.4,1.1,2.3,2.5c0,0,0,0,0,0l0,0C23.9,13.3,22.8,14.3,21.5,14.3L21.5,14.3L21.5,14.3z M12.1,14
			c-1.3,0-2.4-1.1-2.3-2.5c0,0,0,0,0,0l0,0c0.1-1.3,1.2-2.3,2.5-2.3l0,0c1.3,0,2.4,1.1,2.3,2.4c0,0,0,0,0,0l0,0
			C14.5,13,13.4,14,12.1,14L12.1,14z"/>
		<path class="st0" d="M31.1,5.2c-1.4,0-2.4-1.2-2.4-2.5c0,0,0,0,0,0l0,0c0-1.4,1.2-2.5,2.6-2.4l0,0c1.4,0,2.4,1.2,2.4,2.6l0,0
			C33.6,4.2,32.5,5.2,31.1,5.2C31.2,5.2,31.1,5.2,31.1,5.2z M21.7,5c-1.4,0-2.5-1.2-2.4-2.6c0,0,0,0,0,0l0,0C19.3,1,20.5,0,21.9,0
			l0,0c1.4,0,2.4,1.2,2.4,2.5c0,0,0,0,0,0l0,0C24.3,3.9,23.1,5,21.7,5C21.8,5,21.7,5,21.7,5z"/>
		<path class="st0" d="M25,56.4c-1.1,0-1.9-0.9-1.9-2l0,0c0-1.1,0.9-1.9,2-1.9l0,0c1.1,0,1.9,0.9,1.9,2l0,0
			C27,55.5,26.1,56.4,25,56.4L25,56.4z"/>
		<path class="st0" d="M25.2,47c-1.1,0-2-1-2-2.1l0,0c0-1.1,1-2,2.1-2l0,0c1.1,0,2,1,2,2.1l0,0C27.3,46.1,26.4,47,25.2,47L25.2,47
			L25.2,47z M15.8,46.7c-1.1,0-2-1-2-2.1l0,0c0-1.1,1-2,2.1-2l0,0c1.1,0,2,1,2,2.1l0,0C17.9,45.9,17,46.7,15.8,46.7L15.8,46.7z
			 M6.4,46.5c-1.1,0-2-1-2-2.1l0,0c0-1.1,1-2,2.1-2c0,0,0,0,0,0l0,0c1.1,0,2,1,2,2.1l0,0C8.5,45.6,7.6,46.5,6.4,46.5L6.4,46.5
			L6.4,46.5z"/>
		<path class="st0" d="M25.5,37.7c-1.2,0-2.1-1-2.1-2.2c0,0,0,0,0,0l0,0c0-1.2,1-2.1,2.2-2.1c0,0,0,0,0,0l0,0c1.2,0,2.1,1,2.1,2.2
			l0,0C27.7,36.8,26.7,37.7,25.5,37.7L25.5,37.7z M16.1,37.5c-1.2,0-2.1-1-2.1-2.2c0,0,0,0,0,0l0,0c0-1.2,1-2.1,2.2-2.1c0,0,0,0,0,0
			l0,0c1.2,0,2.1,1,2.1,2.2l0,0C18.3,36.5,17.3,37.5,16.1,37.5L16.1,37.5L16.1,37.5z M6.7,37.2c-1.2,0-2.1-1-2.1-2.2l0,0
			c0-1.2,1-2.1,2.2-2.1c0,0,0,0,0,0l0,0c1.2,0,2.1,1,2.1,2.2c0,0,0,0,0,0l0,0C8.9,36.3,7.9,37.2,6.7,37.2L6.7,37.2L6.7,37.2z"/>
		<path class="st0" d="M25.8,28.4c-1.2,0-2.2-1.1-2.2-2.3l0,0c0-1.2,1.1-2.2,2.3-2.2l0,0c1.2,0,2.2,1.1,2.2,2.3l0,0
			C28,27.4,27,28.4,25.8,28.4L25.8,28.4z M16.4,28.1c-1.2,0-2.2-1.1-2.2-2.3c0,0,0,0,0,0l0,0c0-1.2,1.1-2.2,2.3-2.2l0,0
			c1.3,0,2.2,1.1,2.2,2.3c0,0,0,0,0,0l0,0C18.7,27.2,17.7,28.2,16.4,28.1L16.4,28.1L16.4,28.1z M7,27.9c-1.2,0-2.2-1.1-2.2-2.3l0,0
			c0-1.2,1.1-2.2,2.3-2.2l0,0c1.2,0.1,2.2,1.1,2.2,2.3l0,0C9.3,26.9,8.2,27.9,7,27.9L7,27.9z"/>
		<path class="st0" d="M26,19.1c-1.3,0-2.3-1.1-2.3-2.4c0,0,0,0,0,0l0,0c0-1.3,1.1-2.3,2.4-2.3c0,0,0,0,0,0l0,0
			c1.3,0,2.3,1.1,2.3,2.4c0,0,0,0,0,0l0,0C28.4,18.1,27.3,19.1,26,19.1L26,19.1z M16.6,18.8c-1.3,0-2.3-1.1-2.3-2.4c0,0,0,0,0,0l0,0
			c0-1.3,1.1-2.3,2.4-2.3l0,0c1.3,0,2.3,1.1,2.3,2.4l0,0C19,17.8,17.9,18.8,16.6,18.8L16.6,18.8L16.6,18.8z M7.2,18.5
			C5.9,18.5,5,17.4,5,16.1l0,0c0-1.3,1.1-2.3,2.4-2.3l0,0c1.3,0,2.3,1.1,2.3,2.4c0,0,0,0,0,0l0,0c0,1.3-1.1,2.3-2.3,2.3L7.2,18.5
			L7.2,18.5z"/>
		<path class="st0" d="M26.3,9.8c-1.3,0-2.4-1.2-2.4-2.5l0,0c0-1.3,1.2-2.4,2.5-2.4l0,0c1.4,0,2.4,1.2,2.4,2.5l0,0
			C28.8,8.7,27.7,9.8,26.3,9.8C26.4,9.8,26.3,9.8,26.3,9.8z M16.9,9.5c-1.3,0-2.4-1.2-2.4-2.5l0,0c0-1.3,1.1-2.4,2.5-2.4l0,0
			c1.3,0,2.4,1.2,2.4,2.5l0,0c0,1.3-1.1,2.3-2.4,2.4H16.9z M7.5,9.2c-1.3,0-2.4-1.2-2.4-2.5c0,0,0,0,0,0l0,0c0-1.3,1.2-2.4,2.5-2.4
			c0,0,0,0,0,0l0,0C9,4.4,10,5.5,10,6.9l0,0C10,8.2,8.9,9.2,7.5,9.2L7.5,9.2z"/>
		<path class="st0" d="M11.1,51.3c-1.1,0-2-0.9-2-2c0,0,0-0.1,0-0.1l0,0c0-1.1,0.9-2,2-2c0,0,0.1,0,0.1,0l0,0c1.1,0,2,0.9,2,2
			c0,0,0,0.1,0,0.1l0,0C13.2,50.4,12.3,51.3,11.1,51.3L11.1,51.3L11.1,51.3z"/>
		<path class="st0" d="M11.4,42c-1.2,0-2.1-1-2.1-2.2l0,0c0-1.2,1-2.1,2.2-2.1l0,0c1.2,0,2.1,1,2.1,2.2c0,0,0,0,0,0l0,0
			C13.5,41.1,12.6,42,11.4,42L11.4,42z"/>
		<path class="st0" d="M11.7,32.7c-1.2,0-2.2-1.1-2.1-2.3c0,0,0,0,0,0l0,0c0-1.2,1-2.2,2.3-2.1c0,0,0,0,0,0l0,0c1.2,0,2.2,1,2.2,2.3
			c0,0,0,0,0,0l0,0C13.9,31.7,12.9,32.7,11.7,32.7C11.7,32.7,11.7,32.7,11.7,32.7z M2.3,32.4c-1.2,0-2.2-1.1-2.2-2.3l0,0
			C0.2,28.9,1.2,28,2.4,28l0,0c1.2,0,2.2,1,2.2,2.3c0,0,0,0,0,0l0,0C4.5,31.5,3.5,32.4,2.3,32.4L2.3,32.4z"/>
		<path class="st0" d="M11.9,23.4c-1.3,0-2.3-1.1-2.2-2.4l0,0c0-1.3,1.1-2.3,2.3-2.2c0,0,0,0,0,0l0,0c1.3,0,2.3,1.1,2.2,2.4
			c0,0,0,0,0,0l0,0C14.3,22.4,13.2,23.3,11.9,23.4L11.9,23.4z M2.5,23.1c-1.3,0-2.3-1.1-2.2-2.4l0,0c0-1.3,1.1-2.3,2.4-2.2
			c0,0,0,0,0,0l0,0c1.3,0,2.3,1.1,2.2,2.4c0,0,0,0,0,0l0,0C4.9,22.1,3.9,23.1,2.5,23.1L2.5,23.1z"/>
		<path class="st0" d="M6.6,46.5c-1.1,0-2-1-2-2.1l0,0c0-1.1,1-2,2.1-2l0,0c1.1,0,2,1,2,2.1l0,0C8.7,45.6,7.7,46.5,6.6,46.5
			L6.6,46.5L6.6,46.5z"/>
		<path class="st0" d="M6.8,37.2c-1.2,0-2.1-1-2.1-2.2l0,0c0-1.2,1-2.2,2.2-2.1c0,0,0,0,0.1,0l0,0c1.2,0,2.1,1,2.1,2.2c0,0,0,0,0,0
			l0,0c0,1.2-1,2.1-2.2,2.1H6.8z"/>
		<path class="st0" d="M7.1,27.9c-1.2,0-2.2-1.1-2.2-2.3l0,0c0-1.2,1.1-2.2,2.3-2.2l0,0c1.2,0,2.2,1.1,2.2,2.3l0,0
			C9.4,26.9,8.4,27.9,7.1,27.9L7.1,27.9z"/>
		<path class="st0" d="M7.4,18.6c-1.3,0-2.3-1.1-2.3-2.4c0,0,0,0,0,0l0,0c0-1.3,1.1-2.3,2.4-2.3c0,0,0,0,0,0l0,0
			c1.3,0,2.3,1.1,2.3,2.4l0,0C9.7,17.5,8.7,18.6,7.4,18.6C7.4,18.6,7.4,18.6,7.4,18.6z"/>
	</g>
</g>
<g>
	<path class="st0" d="M85.3,15c2.1,1.3,3.8,3.2,5,5.6c1.2,2.4,1.8,5.1,1.8,8.1c0,3-0.6,5.7-1.8,8.1c-1.2,2.4-2.9,4.2-5,5.6
		c-2.1,1.4-4.5,2-7,2c-2,0-3.9-0.4-5.6-1.3c-1.7-0.9-3.2-2-4.2-3.2v12.9c0,0.8-0.3,1.4-0.8,2c-0.5,0.5-1.2,0.8-2,0.8
		c-0.8,0-1.4-0.3-1.9-0.8c-0.5-0.5-0.8-1.2-0.8-2V16.3c0-0.8,0.3-1.5,0.8-2c0.5-0.5,1.2-0.8,2-0.8s1.5,0.3,2,0.8
		c0.5,0.5,0.8,1.2,0.8,2v1.7c0.9-1.4,2.3-2.5,4.1-3.5c1.8-1,3.7-1.4,5.7-1.4C80.8,13,83.1,13.7,85.3,15z M82.3,37.9
		c1.4-0.9,2.5-2.2,3.3-3.8c0.8-1.6,1.2-3.4,1.2-5.4c0-2-0.4-3.8-1.2-5.4c-0.8-1.6-1.9-2.9-3.3-3.8c-1.4-0.9-3-1.4-4.8-1.4
		c-1.8,0-3.4,0.5-4.9,1.4c-1.4,0.9-2.5,2.2-3.3,3.8c-0.8,1.6-1.2,3.4-1.2,5.4c0,2,0.4,3.8,1.2,5.4c0.8,1.6,1.9,2.9,3.3,3.8
		c1.4,0.9,3.1,1.4,4.9,1.4C79.3,39.3,80.9,38.9,82.3,37.9z"/>
	<path class="st0" d="M123.1,14c0.5,0.5,0.8,1.2,0.8,2v25c0,4.8-1.3,8.4-4,10.8c-2.7,2.4-6.2,3.6-10.6,3.6c-1.4,0-2.8-0.1-4.2-0.4
		c-1.4-0.3-2.5-0.6-3.4-1.1c-1.4-0.7-2.1-1.5-2.1-2.7c0-0.2,0-0.4,0.1-0.8c0.2-0.7,0.6-1.2,1-1.5s0.9-0.5,1.4-0.5
		c0.3,0,0.6,0.1,0.9,0.2c1.2,0.5,2.3,1,3.2,1.3c0.9,0.3,2,0.5,3.2,0.5c6,0,9-3.1,9-9.2v-1.2c-1,1.4-2.4,2.5-4,3.2
		c-1.6,0.8-3.5,1.2-5.7,1.2c-3.2,0-5.7-1-7.5-3.1s-2.7-4.7-2.7-8.1V16c0-0.8,0.3-1.5,0.8-2c0.5-0.5,1.2-0.8,2-0.8s1.5,0.3,2,0.8
		c0.5,0.5,0.8,1.2,0.8,2v15.9c0,2.5,0.6,4.4,1.7,5.7c1.1,1.2,2.8,1.8,5.1,1.8c2.2,0,4-0.7,5.4-2.1s2.1-3.2,2.1-5.4V16
		c0-0.8,0.3-1.5,0.8-2c0.5-0.5,1.2-0.8,2-0.8C121.9,13.2,122.6,13.5,123.1,14z"/>
	<path class="st0" d="M157.9,25.4v15.8c0,0.8-0.3,1.4-0.8,2c-0.5,0.5-1.2,0.8-2,0.8c-0.8,0-1.4-0.3-1.9-0.8c-0.5-0.5-0.8-1.2-0.8-2
		V25.4c0-2.3-0.5-4.1-1.6-5.4c-1-1.4-2.7-2-5.1-2c-1.5,0-2.9,0.3-4.2,1c-1.3,0.7-2.2,1.6-3,2.7c-0.7,1.1-1.1,2.4-1.1,3.7v15.7
		c0,0.8-0.3,1.4-0.8,2c-0.5,0.5-1.2,0.8-2,0.8c-0.8,0-1.5-0.3-2-0.8c-0.5-0.5-0.8-1.2-0.8-2V16.3c0-0.8,0.3-1.4,0.8-2
		c0.5-0.5,1.2-0.8,1.9-0.8c0.8,0,1.5,0.3,2,0.8c0.5,0.5,0.8,1.2,0.8,2v2c1-1.5,2.4-2.8,4.2-3.9c1.8-1.1,3.7-1.6,5.8-1.6
		C154.5,12.8,157.9,17,157.9,25.4z"/>
	<path class="st0" d="M188.6,14.9c2.1,1.4,3.8,3.2,5,5.6c1.2,2.4,1.8,5.1,1.8,8.1c0,3-0.6,5.7-1.8,8.2c-1.2,2.4-2.9,4.3-5,5.7
		c-2.1,1.4-4.5,2-7,2c-2,0-3.9-0.4-5.6-1.3c-1.7-0.9-3.2-2-4.2-3.3v1.7c0,0.8-0.3,1.4-0.8,2c-0.5,0.5-1.2,0.8-2,0.8
		c-0.8,0-1.4-0.3-1.9-0.8s-0.8-1.2-0.8-2V3.8c0-0.8,0.2-1.5,0.8-2c0.5-0.5,1.2-0.8,2-0.8c0.8,0,1.5,0.3,2,0.8c0.5,0.5,0.8,1.2,0.8,2
		v14.1c0.9-1.4,2.3-2.6,4.1-3.6c1.8-1,3.7-1.5,5.7-1.5C184.1,12.8,186.4,13.5,188.6,14.9z M185.6,38c1.4-0.9,2.5-2.2,3.3-3.9
		c0.8-1.6,1.2-3.5,1.2-5.5s-0.4-3.8-1.2-5.4c-0.8-1.6-1.9-2.9-3.3-3.8c-1.4-0.9-3-1.4-4.8-1.4c-1.8,0-3.4,0.5-4.9,1.4
		c-1.4,0.9-2.5,2.2-3.3,3.8c-0.8,1.6-1.2,3.4-1.2,5.5c0,2,0.4,3.9,1.2,5.5c0.8,1.6,1.9,2.9,3.3,3.9s3.1,1.4,4.9,1.4
		C182.6,39.4,184.2,38.9,185.6,38z"/>
	<path class="st0" d="M228.5,36.8c-1.4,2.4-3.2,4.3-5.5,5.6c-2.3,1.4-4.9,2-7.7,2c-2.8,0-5.4-0.7-7.7-2c-2.3-1.4-4.2-3.2-5.5-5.6
		c-1.4-2.4-2-5.1-2-8.1c0-3,0.7-5.7,2-8.2c1.4-2.4,3.2-4.3,5.5-5.7c2.3-1.4,4.9-2,7.7-2c2.8,0,5.4,0.7,7.7,2
		c2.3,1.4,4.2,3.2,5.5,5.7c1.4,2.4,2,5.2,2,8.2C230.5,31.7,229.8,34.4,228.5,36.8z M223.7,23.1c-0.9-1.6-2-2.9-3.5-3.8
		c-1.5-0.9-3.1-1.4-5-1.4s-3.5,0.5-5,1.4c-1.5,0.9-2.7,2.2-3.5,3.8c-0.9,1.6-1.3,3.5-1.3,5.6c0,2,0.4,3.9,1.3,5.5
		c0.9,1.6,2,2.9,3.5,3.8c1.5,0.9,3.1,1.4,5,1.4s3.5-0.5,5-1.4c1.5-0.9,2.7-2.2,3.5-3.8s1.3-3.5,1.3-5.5
		C225,26.6,224.6,24.8,223.7,23.1z"/>
	<path class="st0" d="M263.5,1.8c0.5,0.5,0.8,1.2,0.8,2v37.3c0,0.8-0.3,1.4-0.8,2c-0.5,0.5-1.2,0.8-2,0.8c-0.8,0-1.5-0.3-2-0.8
		c-0.5-0.5-0.8-1.2-0.8-2v-1.6c-1,1.4-2.3,2.6-4.1,3.5c-1.8,1-3.6,1.4-5.7,1.4c-2.6,0-5-0.7-7.1-2c-2.1-1.4-3.8-3.2-5-5.7
		c-1.2-2.4-1.9-5.1-1.9-8.1c0-3,0.6-5.7,1.8-8.1c1.2-2.4,2.9-4.3,5-5.7c2.1-1.4,4.5-2,7-2c2,0,3.9,0.4,5.7,1.3
		c1.7,0.9,3.1,2,4.2,3.3V3.8c0-0.8,0.2-1.5,0.8-2c0.5-0.5,1.2-0.8,2-0.8C262.3,1,263,1.3,263.5,1.8z M254.5,38
		c1.4-0.9,2.5-2.2,3.3-3.8c0.8-1.6,1.2-3.5,1.2-5.5c0-2-0.4-3.8-1.2-5.5c-0.8-1.6-1.9-2.9-3.3-3.9c-1.4-0.9-3-1.4-4.8-1.4
		s-3.4,0.5-4.8,1.4c-1.4,0.9-2.5,2.2-3.3,3.9c-0.8,1.6-1.2,3.5-1.2,5.5c0,2,0.4,3.9,1.2,5.5c0.8,1.6,1.9,2.9,3.3,3.8
		c1.4,0.9,3,1.4,4.8,1.4S253.1,38.9,254.5,38z"/>
	<path class="st0" d="M297.1,14c0.5,0.5,0.8,1.2,0.8,2v25c0,4.8-1.3,8.4-4,10.8c-2.7,2.4-6.2,3.6-10.6,3.6c-1.4,0-2.8-0.1-4.2-0.4
		c-1.4-0.3-2.5-0.6-3.4-1.1c-1.4-0.7-2.1-1.5-2.1-2.7c0-0.2,0-0.4,0.1-0.8c0.2-0.7,0.6-1.2,1-1.5s0.9-0.5,1.4-0.5
		c0.3,0,0.6,0.1,0.9,0.2c1.2,0.5,2.3,1,3.2,1.3c0.9,0.3,2,0.5,3.2,0.5c6,0,9-3.1,9-9.2v-1.2c-1,1.4-2.4,2.5-4,3.2
		c-1.6,0.8-3.5,1.2-5.7,1.2c-3.2,0-5.7-1-7.5-3.1s-2.7-4.7-2.7-8.1V16c0-0.8,0.2-1.5,0.8-2c0.5-0.5,1.2-0.8,2-0.8s1.5,0.3,2,0.8
		c0.5,0.5,0.8,1.2,0.8,2v15.9c0,2.5,0.6,4.4,1.7,5.7c1.1,1.2,2.8,1.8,5.1,1.8c2.2,0,4-0.7,5.4-2.1s2.1-3.2,2.1-5.4V16
		c0-0.8,0.3-1.5,0.8-2c0.5-0.5,1.2-0.8,2-0.8C295.9,13.2,296.6,13.5,297.1,14z"/>
</g>
</svg>
